<svg version="1.1" id="Layer_1" xmlns="http://www.w3.org/2000/svg" xmlns:xlink="http://www.w3.org/1999/xlink" x="0px" y="0px"
	 width="100%" viewBox="0 0 500 500" enable-background="new 0 0 500 500" xml:space="preserve">

<path fill="#07C167" opacity="1.000000" stroke="none" 
	d="
M401.000092,90.632706 
	C411.150238,90.898262 421.013794,89.971252 430.410492,91.652946 
	C458.409637,96.663841 476.260986,118.355743 476.414673,147.372772 
	C476.706787,202.536987 476.358459,257.704346 476.554016,312.869385 
	C476.658234,342.265686 455.185059,364.235718 430.074860,368.462402 
	C425.837372,369.175659 421.444183,369.148071 417.122711,369.150726 
	C351.790466,369.190674 286.458160,369.212494 221.126099,369.094330 
	C217.195145,369.087219 214.232788,370.165497 211.226715,372.615265 
	C197.151703,384.085602 182.916931,395.359863 168.737732,406.702332 
	C167.567398,407.638550 166.513611,409.005615 165.180466,409.388641 
	C162.980072,410.020905 160.156570,410.878479 158.428375,410.001038 
	C157.050690,409.301544 156.120789,406.058655 156.362015,404.114777 
	C157.509171,394.870056 159.138901,385.685638 160.563828,376.474640 
	C160.890305,374.364380 161.086182,372.233887 161.421890,369.451935 
	C159.306595,369.348267 157.575119,369.190887 155.843521,369.189453 
	C131.010635,369.169189 106.175804,369.363312 81.345352,369.114258 
	C53.416065,368.834137 31.362143,349.978271 26.476467,322.535156 
	C25.926929,319.448395 25.959309,316.233154 25.957748,313.077393 
	C25.930075,257.078308 25.910881,201.079208 25.952700,145.080154 
	C25.971544,119.847046 44.441864,97.070595 69.137505,92.107712 
	C74.636803,91.002563 80.375992,90.695641 86.005249,90.691338 
	C190.836823,90.611191 295.668488,90.632507 401.000092,90.632706 
M197.930023,370.455353 
	C199.361420,369.312439 200.937408,368.309235 202.199753,367.002960 
	C208.433975,360.551636 215.956375,358.948914 224.821869,358.989258 
	C289.131897,359.282318 353.443848,359.162994 417.755188,359.139374 
	C447.323090,359.128510 466.449493,339.982391 466.471954,310.325439 
	C466.512451,256.843750 466.505005,203.361984 466.442108,149.880341 
	C466.437225,145.735031 466.202423,141.523758 465.455200,137.456924 
	C462.133453,119.378601 445.624207,100.330498 417.671417,100.420425 
	C306.710480,100.777390 195.747757,100.567169 84.785698,100.570366 
	C83.453453,100.570404 82.119514,100.577934 80.789223,100.641670 
	C54.262230,101.912643 35.935364,121.050194 35.918385,147.626266 
	C35.883575,202.107620 35.899841,256.588989 35.928680,311.070374 
	C35.930351,314.226227 35.909252,317.437958 36.445419,320.528839 
	C40.419456,343.438202 58.415272,358.891693 81.744713,359.092102 
	C106.900948,359.308228 132.060425,359.135773 157.218491,359.151245 
	C168.158096,359.157990 172.451981,363.947754 171.060791,374.662964 
	C170.279953,380.677185 169.341797,386.671051 168.280533,394.016724 
	C178.693573,385.745880 188.034454,378.326660 197.930023,370.455353 
z"/>

<path fill="#0AC169" opacity="1.000000" stroke="none" 
	d="
M103.595329,177.401535 
	C104.520447,175.972214 105.405869,174.210251 106.374352,174.163330 
	C111.358513,173.921951 116.395271,173.780365 121.355614,174.235962 
	C132.130890,175.225616 140.102249,184.602112 139.447052,195.045639 
	C138.750931,206.141708 130.693985,213.866486 119.597450,214.004379 
	C114.444328,214.068420 109.289757,214.015320 103.593948,214.015320 
	C103.593948,201.775391 103.593948,189.817688 103.595329,177.401535 
M126.342194,183.900757 
	C121.686089,182.876892 117.029976,181.853012 112.018753,180.751053 
	C112.018753,190.239212 112.018753,198.242554 112.018753,206.195526 
	C122.874863,207.205078 127.271141,205.595078 130.112000,199.760895 
	C132.601349,194.648621 131.509903,189.311081 126.342194,183.900757 
z"/>
<path fill="#0AC169" opacity="1.000000" stroke="none" 
	d="
M301.142822,258.859833 
	C301.224213,260.596954 301.305511,261.862305 301.394043,263.240753 
	C304.103088,262.731445 306.501892,262.042480 308.937500,261.868500 
	C315.501251,261.399567 320.769897,263.863770 323.817566,269.813232 
	C326.861023,275.754608 326.549438,281.824219 322.606659,287.276672 
	C318.710632,292.664368 313.173828,293.995758 306.692108,293.221161 
	C302.460693,292.715485 298.119751,293.125763 293.502930,293.125763 
	C293.502930,278.856842 293.502930,264.949951 293.502930,250.609970 
	C295.781342,250.609970 298.141327,250.609970 301.142761,250.609970 
	C301.142761,253.180344 301.142761,255.784210 301.142822,258.859833 
M310.105438,268.964508 
	C301.823700,269.043365 301.126587,269.744110 301.128723,277.988281 
	C301.128937,278.815826 301.243561,279.662506 301.108856,280.467499 
	C300.579529,283.630432 302.457306,284.979095 305.037994,285.783936 
	C310.516785,287.492706 315.651672,285.268707 317.363831,280.482117 
	C319.112793,275.592621 316.853577,271.589264 310.105438,268.964508 
z"/>
<path fill="#05C066" opacity="1.000000" stroke="none" 
	d="
M61.508934,290.974548 
	C61.509125,281.205170 61.509125,271.930542 61.509125,262.696930 
	C67.454376,262.378784 72.881386,261.904633 78.313362,261.838562 
	C87.620918,261.725250 94.205643,268.690796 93.948730,278.086670 
	C93.695938,287.331512 86.572884,293.916077 77.279831,293.322693 
	C74.861702,293.168274 72.476006,292.505829 69.538361,291.980743 
	C69.538361,295.665161 69.538361,299.084229 69.538361,302.729187 
	C66.763489,302.729187 64.494308,302.729187 61.508743,302.729187 
	C61.508743,298.963837 61.508743,295.216583 61.508934,290.974548 
M72.501450,269.716431 
	C69.436607,271.701416 67.483727,282.430115 70.380760,284.036102 
	C73.144119,285.567963 77.261658,286.436005 80.103600,285.509399 
	C82.576950,284.702972 85.269180,281.217926 85.812668,278.505402 
	C87.147240,271.844513 81.638237,268.131836 72.501450,269.716431 
z"/>
<path fill="#08C168" opacity="1.000000" stroke="none" 
	d="
M317.862579,177.130493 
	C317.862579,175.020599 317.862579,173.391800 317.862579,171.475967 
	C320.552612,171.475967 322.806183,171.475967 325.696045,171.475967 
	C325.696045,175.692413 325.696045,179.912811 325.696045,184.582565 
	C327.655640,183.988846 328.892578,183.550903 330.160736,183.240417 
	C336.954468,181.577103 343.892731,183.995941 347.450165,189.233932 
	C350.944305,194.378784 351.016785,202.474945 347.615234,207.667511 
	C344.059113,213.096008 337.528198,215.251495 330.481842,214.121048 
	C326.602631,213.498703 322.541595,214.009644 317.862579,214.009644 
	C317.862579,201.763947 317.862579,189.687775 317.862579,177.130493 
M339.420959,192.031189 
	C330.923706,187.172760 325.803223,189.912445 325.809631,199.313812 
	C325.809967,199.812347 325.871887,200.320007 325.800049,200.807968 
	C325.150208,205.223145 327.712311,206.719452 331.496826,207.106689 
	C335.365112,207.502502 338.939972,206.873474 341.022675,203.211349 
	C343.107727,199.545166 342.773834,195.895554 339.420959,192.031189 
z"/>
<path fill="#05C066" opacity="1.000000" stroke="none" 
	d="
M220.855103,190.377533 
	C224.105942,197.155807 223.830200,203.427277 219.261719,208.953918 
	C213.795837,215.566132 206.562820,215.172287 198.616119,212.781952 
	C198.616119,216.538605 198.616119,219.962402 198.616119,223.668121 
	C195.718979,223.668121 193.338120,223.668121 190.754059,223.668121 
	C190.754059,210.221161 190.754059,196.965286 190.754059,182.950409 
	C197.236343,182.950409 203.520767,182.712555 209.777344,183.027634 
	C214.556824,183.268326 218.130859,186.011414 220.855103,190.377533 
M212.974594,204.441406 
	C215.628967,201.070129 215.948013,197.437241 213.699493,193.834625 
	C211.519379,190.341614 208.027878,189.499115 204.143555,189.984879 
	C199.072571,190.619019 198.367920,191.781219 198.373291,199.280838 
	C198.377914,205.739655 200.535309,207.829391 206.984131,207.100677 
	C208.845596,206.890350 210.599625,205.729355 212.974594,204.441406 
z"/>
<path fill="#09C168" opacity="1.000000" stroke="none" 
	d="
M103.521461,289.516113 
	C97.693626,282.413544 96.984589,274.512207 101.357780,268.101044 
	C105.376640,262.209351 111.610703,260.760925 120.064194,262.724365 
	C123.200043,263.452698 126.765625,262.330780 130.806854,261.997223 
	C130.806854,267.465851 130.806854,272.412933 130.806854,277.360016 
	C130.806854,282.339203 130.806854,287.318420 130.806854,293.358276 
	C127.855392,292.834045 125.334969,292.303955 122.788536,291.975464 
	C121.799339,291.847870 120.692055,292.000763 119.739952,292.324280 
	C113.951691,294.291199 108.610733,293.705353 103.521461,289.516113 
M122.861282,278.395081 
	C122.860619,270.541107 119.938095,267.718689 113.172157,269.037842 
	C108.789230,269.892365 105.597954,274.226501 106.163101,278.556915 
	C106.797638,283.418884 110.772064,286.458160 116.159988,286.171417 
	C120.498627,285.940460 123.700951,284.574341 122.861282,278.395081 
z"/>
<path fill="#09C168" opacity="1.000000" stroke="none" 
	d="
M385.402740,285.393311 
	C382.443359,278.350342 382.779846,271.907562 387.771027,266.417419 
	C392.589844,261.116852 398.615021,261.090485 405.263763,262.765900 
	C408.336029,263.540100 411.901306,262.357819 415.552490,262.035217 
	C415.552490,272.606964 415.552490,282.528290 415.552490,292.454102 
	C409.339478,292.730194 403.275513,293.247284 397.216614,293.193817 
	C391.970551,293.147552 388.183624,290.216675 385.402740,285.393311 
M399.702301,268.915314 
	C393.762054,270.045990 390.538391,273.677063 391.160400,278.536835 
	C391.761871,283.236023 395.552124,286.445801 400.654510,286.145660 
	C404.062927,285.945190 407.803314,286.049744 407.918274,280.777802 
	C408.141754,270.528320 407.859955,269.850006 399.702301,268.915314 
z"/>
<path fill="#06C067" opacity="1.000000" stroke="none" 
	d="
M338.483002,291.782837 
	C330.586426,286.318237 328.216461,278.250671 331.894104,270.337067 
	C335.287659,263.034698 342.355042,260.486603 351.225006,262.522888 
	C354.480225,263.270203 358.126465,262.314270 362.039093,262.112305 
	C362.039093,272.398682 362.039093,282.407257 362.039093,293.163208 
	C354.341522,292.762390 346.581940,292.358368 338.483002,291.782837 
M351.485992,269.732544 
	C344.209869,267.839630 339.106354,270.160675 338.042206,275.846649 
	C337.272980,279.956604 339.373383,284.851715 343.288361,285.406952 
	C346.736572,285.895996 350.785583,285.133118 353.947632,283.622131 
	C356.111206,282.588257 354.402863,272.101929 351.485992,269.732544 
z"/>
<path fill="#06C067" opacity="1.000000" stroke="none" 
	d="
M284.688843,292.986328 
	C279.649200,293.123566 275.165741,292.436279 270.418640,293.127716 
	C261.578369,294.415344 254.592270,287.316162 254.205322,278.093750 
	C253.825058,269.030365 260.450104,261.752808 269.358765,261.809784 
	C274.797760,261.844574 280.233551,262.379242 286.246002,262.722229 
	C286.246002,272.326233 286.255127,282.232666 286.199280,292.138702 
	C286.197693,292.417358 285.502686,292.692078 284.688843,292.986328 
M278.604370,279.284576 
	C278.604279,270.502899 275.799042,267.584381 268.765472,269.048462 
	C264.329529,269.971832 261.434174,274.092987 261.989441,278.693329 
	C262.555939,283.387238 266.312012,286.455383 271.527100,286.177765 
	C275.293884,285.977264 279.162231,285.571136 278.604370,279.284576 
z"/>
<path fill="#08C168" opacity="1.000000" stroke="none" 
	d="
M193.126129,276.006073 
	C193.126129,281.800598 193.126129,287.097260 193.126129,292.387665 
	C186.932953,292.705627 181.019241,293.420197 175.137924,293.213440 
	C166.624878,292.914215 160.801025,285.917145 161.019852,277.070496 
	C161.238068,268.249786 167.478836,261.759369 176.074417,261.814240 
	C181.471207,261.848694 186.864700,262.398499 193.126114,262.768250 
	C193.126114,266.696411 193.126114,271.102295 193.126129,276.006073 
M177.627075,286.199280 
	C184.933716,285.575287 185.171646,285.324921 185.175262,278.253937 
	C185.175781,277.259918 185.034958,276.241974 185.199509,275.276001 
	C185.912216,271.091858 183.414246,269.655273 179.960861,269.049683 
	C174.453339,268.083832 169.816269,270.910797 168.927689,275.724121 
	C167.930054,281.128052 170.675339,284.772583 177.627075,286.199280 
z"/>
<path fill="#09C168" opacity="1.000000" stroke="none" 
	d="
M238.936600,183.462708 
	C242.458496,183.301773 245.721130,182.738098 248.708984,183.405167 
	C256.192810,185.076035 261.421204,192.396408 260.860504,199.599365 
	C260.268799,207.200073 254.170776,213.282135 246.209915,214.211533 
	C237.971054,215.173370 230.450272,210.683609 228.035477,203.361694 
	C225.641266,196.102264 228.737320,188.679504 235.812149,184.798340 
	C236.679825,184.322342 237.636719,184.008957 238.936600,183.462708 
M236.279953,202.986710 
	C238.819931,206.806000 242.723724,208.429764 246.630020,206.692276 
	C249.241852,205.530548 251.744843,202.494202 252.740295,199.735245 
	C254.024460,196.176102 251.853897,192.935394 248.493805,191.065643 
	C244.962662,189.100693 241.389404,189.345856 238.288269,191.993896 
	C235.038925,194.768463 234.052002,198.237778 236.279953,202.986710 
z"/>
<path fill="#08C168" opacity="1.000000" stroke="none" 
	d="
M373.793823,187.834274 
	C379.427490,182.331650 385.784607,181.280853 392.414612,184.289230 
	C399.046112,187.298294 400.501709,193.439804 400.511505,200.776764 
	C393.056122,200.776764 385.723145,200.776764 378.168945,200.776764 
	C381.113770,208.580887 386.812286,209.630310 394.584686,204.169266 
	C396.025116,205.331848 397.534485,206.550049 399.030212,207.757233 
	C393.938354,214.820938 383.273132,216.520721 376.323669,211.605286 
	C368.992645,206.419952 367.840393,196.642822 373.793823,187.834274 
M378.209473,194.964539 
	C382.964844,195.409302 387.720184,195.854065 392.754547,196.324921 
	C392.524353,191.894089 390.601288,189.676514 387.081787,189.125427 
	C382.938751,188.476700 380.067383,190.429565 378.209473,194.964539 
z"/>
<path fill="#0BC26A" opacity="1.000000" stroke="none" 
	d="
M272.887817,213.948883 
	C270.597260,214.001617 268.776337,214.001617 266.566284,214.001617 
	C266.566284,203.794952 266.566284,193.782623 266.566284,183.478500 
	C272.884796,183.297806 279.184662,182.811584 285.459900,183.030594 
	C290.928436,183.221436 294.534363,186.505142 294.948822,192.103195 
	C295.471985,199.169098 295.075104,206.303131 295.075104,213.714355 
	C292.865509,213.714355 290.464020,213.714355 287.561401,213.714355 
	C287.561401,208.033340 287.791779,202.393066 287.495850,196.780548 
	C287.206451,191.291672 284.087982,189.061783 278.822754,190.062927 
	C275.742676,190.648575 273.947723,191.979462 274.035980,195.725418 
	C274.178467,201.773636 273.619934,207.838379 272.887817,213.948883 
z"/>
<path fill="#08C168" opacity="1.000000" stroke="none" 
	d="
M174.511841,202.519958 
	C171.413727,201.581635 168.642899,200.976883 166.000320,200.018524 
	C162.028854,198.578232 159.635513,195.854218 160.011902,191.341919 
	C160.380600,186.922043 163.134445,183.858780 167.109558,183.457535 
	C172.368195,182.926743 177.763351,183.748627 184.072617,184.032959 
	C182.658463,187.277390 181.901901,189.013107 181.159119,190.717224 
	C176.157379,190.256866 171.352844,186.773041 166.077515,191.993271 
	C168.534943,193.155121 170.288254,194.157104 172.160858,194.824158 
	C174.338013,195.599701 176.675232,195.930115 178.843887,196.724274 
	C182.794739,198.171112 185.251999,200.845413 184.977875,205.343735 
	C184.696396,209.962631 181.946869,212.781204 177.732224,213.766800 
	C171.603073,215.200134 165.559723,214.623886 159.489349,211.402802 
	C160.432632,209.508804 161.291000,207.785294 161.982193,206.397476 
	C166.287491,206.967010 170.166367,207.684952 174.070435,207.869385 
	C175.213089,207.923340 176.427414,206.460037 177.608887,205.692139 
	C176.704758,204.693192 175.800644,203.694229 174.511841,202.519958 
z"/>
<path fill="#08C168" opacity="1.000000" stroke="none" 
	d="
M209.020599,283.606354 
	C209.011658,278.661255 209.011658,274.171600 209.011658,269.681976 
	C208.710342,269.834656 208.409027,269.987366 208.107712,270.140076 
	C206.986816,268.625397 205.052917,267.148895 204.979523,265.585083 
	C204.909698,264.097748 206.783951,262.519104 207.803436,260.980621 
	C208.245529,261.146637 208.687637,261.312683 209.129730,261.478729 
	C209.129730,257.872192 209.129730,254.265686 209.129730,250.427856 
	C211.771606,250.427856 214.036621,250.427856 216.854462,250.427856 
	C216.854462,254.173874 216.854462,257.914581 216.854462,261.923309 
	C219.960434,262.080963 222.542953,262.212067 225.400513,262.357117 
	C225.400513,264.509460 225.400513,266.408173 225.400513,268.637177 
	C222.648010,268.785492 220.059235,268.925018 217.069702,269.086121 
	C217.069702,273.547119 216.897171,277.846680 217.114197,282.126465 
	C217.374664,287.262848 221.394424,286.691071 224.969437,286.663055 
	C226.571213,291.122864 225.308212,293.129913 220.479599,293.364594 
	C213.303116,293.713409 210.141602,291.353851 209.020599,283.606354 
z"/>
<path fill="#0EC26B" opacity="1.000000" stroke="none" 
	d="
M369.274750,271.073578 
	C369.274811,267.958405 369.274811,265.331421 369.274811,262.420349 
	C372.036682,262.420349 374.298370,262.420349 377.396667,262.420349 
	C377.396667,267.407410 377.415375,272.475220 377.391693,277.542847 
	C377.364471,283.371063 377.398590,289.202209 377.219635,295.026306 
	C377.079712,299.580017 374.625366,302.446808 370.172058,303.515289 
	C364.596924,304.852875 363.115051,303.538910 363.568878,297.239227 
	C368.741028,297.294006 369.409424,293.822052 369.305054,289.550476 
	C369.158630,283.557556 369.272278,277.558319 369.274750,271.073578 
z"/>
<path fill="#06C067" opacity="1.000000" stroke="none" 
	d="
M355.946167,177.138855 
	C355.946167,175.026718 355.946167,173.394638 355.946167,171.478271 
	C358.618866,171.478271 360.881195,171.478271 363.542023,171.478271 
	C363.542023,185.450989 363.542023,199.484268 363.542023,213.764664 
	C361.222626,213.764664 358.945068,213.764664 355.946136,213.764664 
	C355.946136,201.791840 355.946136,189.705383 355.946167,177.138855 
z"/>
<path fill="#07C167" opacity="1.000000" stroke="none" 
	d="
M430.852966,281.180969 
	C430.852783,285.279358 430.852783,288.906647 430.852783,292.764587 
	C428.116760,292.764587 425.845184,292.764587 423.214966,292.764587 
	C423.214966,282.764832 423.214966,272.718903 423.214966,261.495209 
	C426.401093,262.366699 429.152374,263.119232 432.806732,264.118805 
	C434.675110,263.494141 438.002655,262.381622 441.952240,261.061127 
	C441.952240,264.685852 441.952240,267.247620 441.952240,269.803192 
	C432.230072,270.782745 431.062775,271.941833 430.852966,281.180969 
z"/>
<path fill="#07C167" opacity="1.000000" stroke="none" 
	d="
M151.806488,270.316498 
	C147.478806,271.569580 145.868378,274.338226 145.881180,278.267181 
	C145.896698,283.035492 145.884857,287.803894 145.884857,292.785614 
	C143.081558,292.785614 140.815613,292.785614 138.206177,292.785614 
	C138.206177,282.777954 138.206177,272.762146 138.206177,262.350372 
	C141.270859,262.646820 145.014130,260.104767 146.254486,264.651245 
	C149.638184,263.548187 153.059464,262.432892 157.051575,261.131500 
	C157.051575,264.784210 157.051575,267.206848 157.051575,270.007263 
	C155.390137,270.082947 153.804718,270.155151 151.806488,270.316498 
z"/>
<path fill="#07C167" opacity="1.000000" stroke="none" 
	d="
M230.865082,268.125610 
	C230.865067,266.009430 230.865067,264.374847 230.865067,262.241699 
	C234.204086,262.901245 238.206635,259.515076 239.140152,264.727020 
	C242.588882,263.537537 245.918823,262.389008 249.911438,261.011902 
	C249.911438,264.611572 249.911438,267.163116 249.911438,269.723419 
	C239.546509,271.057800 238.858124,271.860413 238.852951,282.597198 
	C238.851364,285.894867 238.852707,289.192535 238.852707,292.742554 
	C236.150269,292.742554 233.879532,292.742554 230.865082,292.742554 
	C230.865082,284.782135 230.865082,276.694672 230.865082,268.125610 
z"/>
<path fill="#10C36D" opacity="1.000000" stroke="none" 
	d="
M310.405640,207.809113 
	C310.405396,210.080124 310.405396,211.877945 310.405396,213.851135 
	C307.676758,213.851135 305.387909,213.851135 302.720520,213.851135 
	C302.720520,203.781235 302.720520,193.786697 302.720520,183.455719 
	C305.157959,183.455719 307.534882,183.455719 310.405853,183.455719 
	C310.405853,191.479828 310.405853,199.407867 310.405640,207.809113 
z"/>
<path fill="#0EC26B" opacity="1.000000" stroke="none" 
	d="
M145.731613,199.993256 
	C145.731796,194.217163 145.731796,188.937088 145.731796,183.414764 
	C148.505844,183.414764 150.878632,183.414764 153.479660,183.414764 
	C153.589569,184.469391 153.743256,185.265717 153.744751,186.062317 
	C153.761765,195.148438 153.755569,204.234604 153.755569,213.670990 
	C151.057480,213.670990 148.670044,213.670990 145.731430,213.670990 
	C145.731430,209.322021 145.731430,204.905670 145.731613,199.993256 
z"/>
<path fill="#10C36D" opacity="1.000000" stroke="none" 
	d="
M153.692810,173.498505 
	C153.716919,178.633301 151.106003,181.226929 147.983475,179.420227 
	C146.661926,178.655579 145.415771,176.738052 145.288971,175.246445 
	C145.182632,173.995590 146.705704,171.529602 147.589417,171.491196 
	C149.539932,171.406479 151.542206,172.512878 153.692810,173.498505 
z"/>
<path fill="#0EC26B" opacity="1.000000" stroke="none" 
	d="
M372.255981,249.971848 
	C374.384888,251.273651 376.772003,252.357346 377.573547,254.149979 
	C377.970642,255.038025 375.741547,257.822113 374.140015,258.612610 
	C373.170990,259.090851 370.499420,257.807861 369.696960,256.589142 
	C367.945129,253.928528 368.988708,251.526581 372.255981,249.971848 
z"/>
<path fill="#0EC26B" opacity="1.000000" stroke="none" 
	d="
M310.448151,173.550339 
	C310.464661,178.648438 307.843781,181.223221 304.729950,179.403503 
	C303.434509,178.646439 302.252258,176.699814 302.144196,175.212311 
	C302.052673,173.952682 303.561890,171.485443 304.399963,171.469116 
	C306.344971,171.431305 308.312469,172.551895 310.448151,173.550339 
z"/>
<path fill="#FCFEFD" opacity="1.000000" stroke="none" 
	d="
M126.653549,184.135696 
	C131.509903,189.311081 132.601349,194.648621 130.112000,199.760895 
	C127.271141,205.595078 122.874863,207.205078 112.018753,206.195526 
	C112.018753,198.242554 112.018753,190.239212 112.018753,180.751053 
	C117.029976,181.853012 121.686089,182.876892 126.653549,184.135696 
z"/>
<path fill="#F8FDFB" opacity="1.000000" stroke="none" 
	d="
M310.510437,269.010071 
	C316.853577,271.589264 319.112793,275.592621 317.363831,280.482117 
	C315.651672,285.268707 310.516785,287.492706 305.037994,285.783936 
	C302.457306,284.979095 300.579529,283.630432 301.108856,280.467499 
	C301.243561,279.662506 301.128937,278.815826 301.128723,277.988281 
	C301.126587,269.744110 301.823700,269.043365 310.510437,269.010071 
z"/>
<path fill="#F4FCF9" opacity="1.000000" stroke="none" 
	d="
M72.881218,269.540497 
	C81.638237,268.131836 87.147240,271.844513 85.812668,278.505402 
	C85.269180,281.217926 82.576950,284.702972 80.103600,285.509399 
	C77.261658,286.436005 73.144119,285.567963 70.380760,284.036102 
	C67.483727,282.430115 69.436607,271.701416 72.881218,269.540497 
z"/>
<path fill="#FCFEFD" opacity="1.000000" stroke="none" 
	d="
M339.706970,192.311493 
	C342.773834,195.895554 343.107727,199.545166 341.022675,203.211349 
	C338.939972,206.873474 335.365112,207.502502 331.496826,207.106689 
	C327.712311,206.719452 325.150208,205.223145 325.800049,200.807968 
	C325.871887,200.320007 325.809967,199.812347 325.809631,199.313812 
	C325.803223,189.912445 330.923706,187.172760 339.706970,192.311493 
z"/>
<path fill="#F4FCF9" opacity="1.000000" stroke="none" 
	d="
M212.688751,204.722809 
	C210.599625,205.729355 208.845596,206.890350 206.984131,207.100677 
	C200.535309,207.829391 198.377914,205.739655 198.373291,199.280838 
	C198.367920,191.781219 199.072571,190.619019 204.143555,189.984879 
	C208.027878,189.499115 211.519379,190.341614 213.699493,193.834625 
	C215.948013,197.437241 215.628967,201.070129 212.688751,204.722809 
z"/>
<path fill="#F8FDFB" opacity="1.000000" stroke="none" 
	d="
M122.861267,278.841644 
	C123.700951,284.574341 120.498627,285.940460 116.159988,286.171417 
	C110.772064,286.458160 106.797638,283.418884 106.163101,278.556915 
	C105.597954,274.226501 108.789230,269.892365 113.172157,269.037842 
	C119.938095,267.718689 122.860619,270.541107 122.861267,278.841644 
z"/>
<path fill="#F8FDFB" opacity="1.000000" stroke="none" 
	d="
M400.114929,268.909973 
	C407.859955,269.850006 408.141754,270.528320 407.918274,280.777802 
	C407.803314,286.049744 404.062927,285.945190 400.654510,286.145660 
	C395.552124,286.445801 391.761871,283.236023 391.160400,278.536835 
	C390.538391,273.677063 393.762054,270.045990 400.114929,268.909973 
z"/>
<path fill="#F4FCF9" opacity="1.000000" stroke="none" 
	d="
M351.876099,269.881836 
	C354.402863,272.101929 356.111206,282.588257 353.947632,283.622131 
	C350.785583,285.133118 346.736572,285.895996 343.288361,285.406952 
	C339.373383,284.851715 337.272980,279.956604 338.042206,275.846649 
	C339.106354,270.160675 344.209869,267.839630 351.876099,269.881836 
z"/>
<path fill="#F4FCF9" opacity="1.000000" stroke="none" 
	d="
M278.604126,279.716187 
	C279.162231,285.571136 275.293884,285.977264 271.527100,286.177765 
	C266.312012,286.455383 262.555939,283.387238 261.989441,278.693329 
	C261.434174,274.092987 264.329529,269.971832 268.765472,269.048462 
	C275.799042,267.584381 278.604279,270.502899 278.604126,279.716187 
z"/>
<path fill="#FCFEFD" opacity="1.000000" stroke="none" 
	d="
M177.206665,286.178040 
	C170.675339,284.772583 167.930054,281.128052 168.927689,275.724121 
	C169.816269,270.910797 174.453339,268.083832 179.960861,269.049683 
	C183.414246,269.655273 185.912216,271.091858 185.199509,275.276001 
	C185.034958,276.241974 185.175781,277.259918 185.175262,278.253937 
	C185.171646,285.324921 184.933716,285.575287 177.206665,286.178040 
z"/>
<path fill="#F8FDFB" opacity="1.000000" stroke="none" 
	d="
M236.112305,202.630157 
	C234.052002,198.237778 235.038925,194.768463 238.288269,191.993896 
	C241.389404,189.345856 244.962662,189.100693 248.493805,191.065643 
	C251.853897,192.935394 254.024460,196.176102 252.740295,199.735245 
	C251.744843,202.494202 249.241852,205.530548 246.630020,206.692276 
	C242.723724,208.429764 238.819931,206.806000 236.112305,202.630157 
z"/>
<path fill="#EEFBF5" opacity="1.000000" stroke="none" 
	d="
M378.277466,194.569458 
	C380.067383,190.429565 382.938751,188.476700 387.081787,189.125427 
	C390.601288,189.676514 392.524353,191.894089 392.754547,196.324921 
	C387.720184,195.854065 382.964844,195.409302 378.277466,194.569458 
z"/>
</svg>