<svg viewBox="0 0 200 200" xmlns="http://www.w3.org/2000/svg">
  
  <!-- Burbujas dispersas en varias posiciones -->
  <circle cx="170" cy="50" r="5" fill="#2F3B4B" opacity="0.05"/>
  <circle cx="140" cy="100" r="4" fill="#2F3B4B" opacity="0.07"/>
  <circle cx="190" cy="70" r="4" fill="#2F3B4B" opacity="0.08"/>
  <circle cx="110" cy="120" r="6" fill="#2F3B4B" opacity="0.09"/>
  <circle cx="70" cy="150" r="5" fill="#2F3B4B" opacity="0.1"/>
  <circle cx="60" cy="180" r="4" fill="#2F3B4B" opacity="0.06"/>
  <circle cx="40" cy="50" r="5" fill="#2F3B4B" opacity="0.07"/>
  <circle cx="20" cy="90" r="3" fill="#2F3B4B" opacity="0.05"/>
  <circle cx="100" cy="30" r="4" fill="#2F3B4B" opacity="0.08"/>
  <circle cx="150" cy="170" r="3" fill="#2F3B4B" opacity="0.06"/>
  
  <!-- Burbujas adicionales en posiciones variadas -->
  <circle cx="180" cy="40" r="4" fill="#2F3B4B" opacity="0.03"/>
  <circle cx="130" cy="60" r="5" fill="#2F3B4B" opacity="0.04"/>
  <circle cx="110" cy="150" r="6" fill="#2F3B4B" opacity="0.05"/>
  <circle cx="80" cy="100" r="3" fill="#2F3B4B" opacity="0.03"/>
  <circle cx="50" cy="120" r="3" fill="#2F3B4B" opacity="0.04"/>
  <circle cx="120" cy="40" r="5" fill="#2F3B4B" opacity="0.05"/>
  <circle cx="30" cy="30" r="4" fill="#2F3B4B" opacity="0.02"/>
  <circle cx="170" cy="20" r="3" fill="#2F3B4B" opacity="0.04"/>
  <circle cx="60" cy="90" r="5" fill="#2F3B4B" opacity="0.06"/>
  <circle cx="40" cy="70" r="4" fill="#2F3B4B" opacity="0.05"/>
  
  <!-- Más burbujas dispersas -->
  <circle cx="150" cy="120" r="6" fill="#2F3B4B" opacity="0.04"/>
  <circle cx="190" cy="50" r="4" fill="#2F3B4B" opacity="0.06"/>
  <circle cx="20" cy="10" r="4" fill="#2F3B4B" opacity="0.03"/>
  <circle cx="50" cy="50" r="3" fill="#2F3B4B" opacity="0.04"/>
  <circle cx="130" cy="110" r="4" fill="#2F3B4B" opacity="0.05"/>
  <circle cx="60" cy="60" r="5" fill="#2F3B4B" opacity="0.03"/>
  <circle cx="90" cy="80" r="5" fill="#2F3B4B" opacity="0.04"/>
  <circle cx="10" cy="140" r="3" fill="#2F3B4B" opacity="0.05"/>
</svg>
