<svg version="1.1" id="Layer_1" xmlns="http://www.w3.org/2000/svg" xmlns:xlink="http://www.w3.org/1999/xlink" x="0px" y="0px"
	 width="100%" viewBox="0 0 500 500" enable-background="new 0 0 500 500" xml:space="preserve">

<path fill="#000000" opacity="1.000000" stroke="none" 
	d="
M100.468658,501.000000 
	C100.000008,489.868683 100.000015,478.737366 100.000015,467.606049 
	C100.000023,443.325012 100.000015,419.043976 100.000015,394.192871 	
	C107.591843,394.192871 114.211777,394.192871 120.831711,394.192871 
	C129.165039,394.192871 137.507385,394.422272 145.827896,394.095734 
	C149.964874,393.933411 150.865784,395.389862 150.822861,399.250488 
	C150.633850,416.247040 150.741257,433.246887 150.741257,450.622681 
	C250.705811,450.622681 350.577484,450.622681 450.724792,450.622681 
	C450.724792,317.685181 450.724792,184.613434 450.724792,51.270844 
	C317.676727,51.270844 184.604935,51.270844 51.000000,51.270844 
	C51.000000,200.860855 51.000000,350.461761 51.000000,500.531342 
	C34.337067,501.000000 17.674137,501.000000 1.008404,501.000000 
	C1.005603,334.374420 1.005603,167.748840 1.005603,1.061631 
	C167.588211,1.061631 334.176453,1.061631 500.882324,1.061631 
	C500.882324,167.550797 500.882324,334.101715 500.882324,501.000000 
	C367.645966,501.000000 234.291641,501.000000 100.468658,501.000000 
z"/>
<path fill="#000000" opacity="1.000000" stroke="none" 
	d="
M400.760010,252.032425 
	C400.799713,267.703186 400.839417,283.373932 400.624817,299.581726 
	C400.156799,300.313263 400.024139,300.552673 399.972504,300.836975 
	C398.143402,300.891296 396.314301,300.993011 394.485199,300.993195 
	C315.155945,301.001099 235.826706,301.000000 156.497452,301.000000 
	C154.703018,301.000000 152.908569,301.000000 150.741272,301.000000 
	C150.741272,314.037994 150.741333,326.657623 150.741257,339.277283 
	C150.741211,348.443481 150.841751,357.612061 150.621292,366.772980 
	C150.591675,368.003448 148.957001,370.236786 148.041260,370.249420 
	C132.427780,370.465637 116.810471,370.404510 100.785316,370.404510 
	C100.785316,280.232788 100.785316,190.500061 100.785316,100.280075 
	C102.159210,100.208931 103.743385,100.054527 105.327484,100.055206 
	C201.986176,100.096832 298.644867,100.176849 395.303467,100.118683 
	C399.558594,100.116119 401.093262,101.042046 401.000458,105.611069 
	C400.703247,120.237907 400.890015,134.874573 400.890015,150.018158 
	C317.503204,150.018158 234.439529,150.018158 151.059235,150.018158 
	C151.059235,183.779709 151.059235,217.031967 151.059235,251.011566 
	C233.575989,251.011566 316.314728,251.011566 399.582520,251.284378 
	C400.243622,251.830292 400.459778,251.988708 400.760010,252.032425 
z"/>
<path fill="#2E2E2E" opacity="1.000000" stroke="none" 
	d="
M400.842712,251.762558 
	C400.459778,251.988708 400.243622,251.830292 400.044189,251.360413 
	C400.293060,251.273300 400.609283,251.382996 400.842712,251.762558 
z"/>
<path fill="#2E2E2E" opacity="1.000000" stroke="none" 
	d="
M400.251801,300.877777 
	C400.024139,300.552673 400.156799,300.313263 400.565216,300.045135 
	C400.683685,300.287201 400.607391,300.602905 400.251801,300.877777 
z"/>
</svg>