<svg version="1.1" id="Layer_1" xmlns="http://www.w3.org/2000/svg" xmlns:xlink="http://www.w3.org/1999/xlink" x="0px" y="0px"
	 width="100%" viewBox="0 0 500 500" enable-background="new 0 0 500 500" xml:space="preserve">
<path fill="#2BA84A" opacity="1.000000" stroke="none" 
	d="
M62.248699,446.889374 
	C54.404247,441.135376 50.981213,433.622528 50.983307,424.318329 
	C51.009415,308.159210 50.988159,192.000092 51.017136,75.840981 
	C51.020641,61.795219 61.948551,51.014767 76.116516,51.012245 
	C192.775604,50.991486 309.434692,50.989574 426.093781,51.015022 
	C440.110748,51.018078 450.982605,61.960934 450.985565,76.060722 
	C451.009888,192.719818 451.008667,309.378906 450.986938,426.037994 
	C450.984344,439.911957 440.186707,450.968811 426.510529,450.976990 
	C350.182159,451.022491 273.853760,451.014404 197.525391,450.982391 
	C186.601227,450.977814 178.098831,446.547516 173.410492,436.361145 
	C169.110825,427.019287 170.420944,418.026031 176.853485,410.140228 
	C182.090195,403.720337 189.273422,400.971313 197.574951,400.985168 
	C222.739899,401.027252 247.904984,401.000031 273.070007,401.000000 
	C313.734039,400.999908 354.398071,401.000000 395.062103,401.000000 
	C396.861542,401.000000 398.660980,401.000000 400.728119,401.000000 
	C400.728119,300.917480 400.728119,201.195816 400.728119,101.237015 
	C300.965729,101.237015 201.361786,101.237015 101.000061,101.237015 
	C101.000061,103.049347 101.000061,104.963158 101.000061,106.876961 
	C101.000061,212.370102 101.006096,317.863251 100.992966,423.356384 
	C100.991173,437.767029 94.103043,447.082367 81.280937,450.306519 
	C74.543091,452.000763 68.446556,450.218140 62.248699,446.889374 
z"/>
<path fill="#2CA94B" opacity="1.000000" stroke="none" 
	d="
M221.002853,287.005066 
	C220.996277,309.665588 221.167526,331.829559 220.904419,353.988403 
	C220.781891,364.306366 215.944992,372.217224 206.352280,376.581390 
	C196.787735,380.932800 187.721542,379.425812 179.723068,372.852905 
	C174.049316,368.190338 171.260025,361.798309 171.062958,354.442291 
	C170.902390,348.447723 170.998947,342.446014 170.998703,336.447449 
	C170.996094,274.294006 170.995209,212.140564 170.998016,149.987122 
	C170.998779,133.325562 181.561508,122.940659 198.102036,122.998558 
	C233.260223,123.121651 268.418945,123.080688 303.577332,123.168724 
	C318.228027,123.205406 328.403717,131.369156 330.658783,144.690277 
	C333.057312,158.858826 321.771271,172.932053 307.401154,173.053055 
	C280.575562,173.278961 253.746918,173.147491 226.919540,173.164474 
	C225.126678,173.165604 223.333801,173.164627 221.275146,173.164627 
	C221.275146,189.686615 221.275146,205.762527 221.275146,222.438797 
	C223.164917,222.438797 224.931992,222.438797 226.699081,222.438812 
	C252.193649,222.438904 277.688385,222.385529 303.182739,222.460159 
	C317.309235,222.501526 326.569733,229.025421 330.025848,241.069458 
	C334.056000,255.113876 324.242340,270.276581 309.701904,271.987183 
	C304.103516,272.645813 298.398651,272.525909 292.741760,272.538666 
	C269.086731,272.592102 245.431503,272.561188 221.002853,272.561188 
	C221.002853,277.342743 221.002853,281.924561 221.002853,287.005066 
z"/>
</svg>