<svg version="1.1" id="Layer_1" xmlns="http://www.w3.org/2000/svg" xmlns:xlink="http://www.w3.org/1999/xlink" x="0px" y="0px"
	 width="100%" viewBox="0 0 500 500" enable-background="new 0 0 500 500" xml:space="preserve">

<path fill="#2F3B4B" opacity="1.000000" stroke="none" 
	d="
M501.000000,50.531342 
	C351.204926,51.000000 201.409821,51.000000 51.307224,51.000000 
	C51.307224,184.297409 51.307224,317.351807 51.307224,450.703400 
	C184.318832,450.703400 317.373230,450.703400 450.714111,450.703400 
	C450.714111,358.645935 450.714111,266.577454 450.714111,173.838791 
	C447.523712,173.838791 444.264343,173.839249 441.004944,173.838715 
	C429.506226,173.836853 418.004608,173.995163 406.509583,173.788406 
	C394.486786,173.572174 385.549072,167.191910 381.989380,156.755356 
	C378.641479,146.939728 381.739807,136.190567 389.911285,129.261398 
	C394.887054,125.042091 400.783783,123.821915 407.116577,123.826012 
	C438.103668,123.846077 469.090790,123.824478 500.538940,123.908798 
	C501.000000,249.638138 501.000000,375.276276 501.000000,500.957214 
	C334.399689,500.957214 167.799377,500.957214 1.099528,500.957214 
	C1.099528,334.437561 1.099528,167.875061 1.099528,1.156272 
	C167.666550,1.156272 334.333252,1.156272 501.000000,1.156272 
	C501.000000,17.403465 501.000000,33.733074 501.000000,50.531342 
z"/>
<path fill="#303C4C" opacity="1.000000" stroke="none" 
	d="
M258.000061,123.832993 
	C272.997528,123.855125 287.497437,123.723785 301.991699,123.950630 
	C312.543671,124.115784 320.003052,129.480011 324.061829,139.089890 
	C328.136444,148.737335 326.331940,157.749252 319.542053,165.597885 
	C314.150757,171.829803 306.830963,173.811768 298.889801,173.826523 
	C276.559662,173.868011 254.229340,173.841217 231.899094,173.841339 
	C230.094299,173.841354 228.289505,173.841324 226.190857,173.841324 
	C226.190857,191.575974 226.190857,208.996689 226.190857,227.158661 
	C227.825058,227.158661 229.572006,227.158646 231.318954,227.158661 
	C253.982483,227.158905 276.646484,227.070282 299.309387,227.189957 
	C314.970215,227.272644 326.264526,238.194641 326.081329,252.742386 
	C325.914246,266.013489 315.288971,276.987793 302.006927,277.087524 
	C278.678192,277.262726 255.347382,277.155823 232.017441,277.166901 
	C230.209763,277.167755 228.402069,277.166992 225.894104,277.166992 
	C225.894104,279.224030 225.894119,280.980011 225.894119,282.735962 
	C225.894089,305.566132 225.934387,328.396393 225.878296,351.226440 
	C225.846634,364.116119 219.194382,373.676880 208.008713,377.211304 
	C193.324768,381.851074 177.382156,371.217987 176.047302,355.853729 
	C175.860229,353.700775 175.896881,351.524933 175.896225,349.359680 
	C175.875900,282.872101 175.864029,216.384491 175.850494,149.896896 
	C175.847260,134.038757 186.247742,123.671333 202.010635,123.729691 
	C220.506973,123.798172 239.003555,123.801453 258.000061,123.832993 
z"/>
</svg>