<svg version="1.1" id="Layer_1" xmlns="http://www.w3.org/2000/svg" xmlns:xlink="http://www.w3.org/1999/xlink" x="0px" y="0px"
	 width="100%" viewBox="0 0 500 500" enable-background="new 0 0 500 500" xml:space="preserve">
<path fill="#FFFFFF" opacity="1.000000" stroke="none" 
	d="
M176.000000,501.000000 
	C134.645767,501.000000 93.291542,501.000000 51.468658,500.531342 
	C51.000000,350.481750 51.000000,200.900818 51.000000,51.273628 
	C184.588623,51.273628 317.638580,51.273628 450.721985,51.273628 
	C450.721985,184.597427 450.721985,317.647400 450.721985,450.736053 
	C375.708832,450.736053 300.973969,450.736053 225.899689,450.736053 
	C225.899689,443.177277 225.699829,435.870514 225.981186,428.582336 
	C226.129318,424.745056 225.172531,423.205017 221.046219,423.435211 
	C214.899658,423.778107 208.719788,423.523987 202.554092,423.523956 
	C193.792160,423.523926 185.030212,423.523987 176.000000,423.523987 
	C176.000000,449.752228 176.000000,475.376129 176.000000,501.000000 
M326.069061,122.875412 
	C324.361237,122.350212 322.654938,121.371605 320.945404,121.365921 
	C274.464264,121.211449 227.982773,121.156342 181.501343,121.085083 
	C179.717621,121.082352 177.933884,121.084740 176.138474,121.084740 
	C176.138474,206.318069 176.138474,291.013275 176.138474,375.852661 
	C192.459641,375.852661 208.414337,375.852661 225.693130,375.852661 
	C226.137131,359.152100 225.832138,342.462097 225.887466,325.785858 
	C225.943161,309.004669 225.899719,292.223175 225.899719,274.882141 
	C259.530609,274.882141 292.735107,274.882141 325.910706,274.882141 
	C325.910706,258.040070 325.910706,241.762024 325.910706,224.922150 
	C292.518280,224.922150 259.313873,224.922150 226.235550,224.922150 
	C226.235550,206.789154 226.235550,189.221558 226.235550,171.181549 
	C259.627563,171.181549 292.686920,171.181549 326.100128,171.181549 
	C326.100128,155.075317 326.100128,139.444489 326.069061,122.875412 
z"/>
<path fill="#2F3B4B" opacity="1.000000" stroke="none" 
	d="
M176.468658,501.000000 
	C176.000000,475.376129 176.000000,449.752228 176.000000,423.523987 
	C185.030212,423.523987 193.792160,423.523926 202.554092,423.523956 
	C208.719788,423.523987 214.899658,423.778107 221.046219,423.435211 
	C225.172531,423.205017 226.129318,424.745056 225.981186,428.582336 
	C225.699829,435.870514 225.899689,443.177277 225.899689,450.736053 
	C300.973969,450.736053 375.708832,450.736053 450.721985,450.736053 
	C450.721985,317.647400 450.721985,184.597427 450.721985,51.273628 
	C317.638580,51.273628 184.588623,51.273628 51.000000,51.273628 
	C51.000000,200.900818 51.000000,350.481750 51.000000,500.531342 
	C34.337223,501.000000 17.674442,501.000000 1.008749,501.000000 
	C1.005832,334.376099 1.005832,167.752213 1.005832,1.064155 
	C167.584991,1.064155 334.170013,1.064155 500.877502,1.064155 
	C500.877502,167.546051 500.877502,334.092224 500.877502,501.000000 
	C392.979370,501.000000 284.958344,501.000000 176.468658,501.000000 
z"/>
<path fill="#2F3B4B" opacity="1.000000" stroke="none" 
	d="
M326.084595,123.344543 
	C326.100128,139.444489 326.100128,155.075317 326.100128,171.181549 
	C292.686920,171.181549 259.627563,171.181549 226.235550,171.181549 
	C226.235550,189.221558 226.235550,206.789154 226.235550,224.922150 
	C259.313873,224.922150 292.518280,224.922150 325.910706,224.922150 
	C325.910706,241.762024 325.910706,258.040070 325.910706,274.882141 
	C292.735107,274.882141 259.530609,274.882141 225.899719,274.882141 
	C225.899719,292.223175 225.943161,309.004669 225.887466,325.785858 
	C225.832138,342.462097 226.137131,359.152100 225.693130,375.852661 
	C208.414337,375.852661 192.459641,375.852661 176.138474,375.852661 
	C176.138474,291.013275 176.138474,206.318069 176.138474,121.084740 
	C177.933884,121.084740 179.717621,121.082352 181.501343,121.085083 
	C227.982773,121.156342 274.464264,121.211449 320.945404,121.365921 
	C322.654938,121.371605 324.361237,122.350212 326.084595,123.344543 
z"/>
</svg>