<svg version="1.1" id="Layer_1" xmlns="http://www.w3.org/2000/svg" xmlns:xlink="http://www.w3.org/1999/xlink" x="0px" y="0px"
	 width="100%" viewBox="0 0 500 500" enable-background="new 0 0 500 500" xml:space="preserve">
<path fill="none" opacity="1.000000" stroke="none" 
	d="
M278.000000,501.000000 
	C185.333359,501.000000 93.166710,501.000000 1.000033,501.000000 
	C1.000000,417.666718 1.000000,334.333405 1.000000,251.000122 
	C1.000000,167.666809 1.000000,84.333496 1.000000,1.000139 
	C167.666565,1.000093 334.333130,1.000093 500.999756,1.000046 
	C500.999847,167.666519 500.999847,334.333038 500.999939,500.999786 
	C426.833344,501.000000 352.666656,501.000000 278.000000,501.000000 
M54.699047,288.783569 
	C66.450577,345.681854 96.723724,389.867004 145.809753,420.982635 
	C214.905762,464.782562 308.184540,460.741669 372.135712,409.932678 
	C431.638824,362.657715 457.808563,300.491913 448.971985,224.746994 
	C443.658539,179.201721 423.865540,139.964615 390.799347,108.248871 
	C344.408905,63.753056 288.837097,45.011181 224.815216,52.957779 
	C174.716080,59.176239 132.845993,81.919991 100.188820,119.951263 
	C58.594116,168.390839 43.665409,224.862564 54.699047,288.783569 
z"/>
<path fill="#0156D2" opacity="1.000000" stroke="none" 
	d="
M54.588726,288.367432 
	C43.665409,224.862564 58.594116,168.390839 100.188820,119.951263 
	C132.845993,81.919991 174.716080,59.176239 224.815216,52.957779 
	C288.837097,45.011181 344.408905,63.753056 390.799347,108.248871 
	C423.865540,139.964615 443.658539,179.201721 448.971985,224.746994 
	C457.808563,300.491913 431.638824,362.657715 372.135712,409.932678 
	C308.184540,460.741669 214.905762,464.782562 145.809753,420.982635 
	C96.723724,389.867004 66.450577,345.681854 54.588726,288.367432 
M129.122894,235.499985 
	C129.123032,251.662628 129.210678,267.826080 129.057678,283.987305 
	C129.022369,287.717346 130.186142,289.744812 133.871857,290.915466 
	C152.562546,296.851807 171.152527,303.107117 189.871368,308.950897 
	C192.670166,309.824646 196.155701,309.797607 198.994110,309.006042 
	C208.113312,306.462860 217.029297,303.197784 226.124817,300.559937 
	C230.158539,299.390076 231.753342,297.361969 231.672363,293.116608 
	C231.449966,281.457062 231.785004,269.785767 231.493561,258.129272 
	C231.389145,253.952972 232.477615,252.296600 236.816803,251.873077 
	C244.590347,251.114349 252.271225,249.439011 260.037872,248.564331 
	C264.441833,248.068344 265.830872,246.175461 265.812622,241.810501 
	C265.669098,207.486252 265.683990,173.160995 265.799377,138.836548 
	C265.812592,134.904663 264.671814,132.952347 260.682831,131.731705 
	C239.863007,125.360786 219.167206,118.585205 198.362335,112.164009 
	C196.030289,111.444260 193.082596,111.442055 190.758301,112.176468 
	C172.217270,118.034988 153.810806,124.322876 135.237762,130.074463 
	C130.299515,131.603699 128.989105,134.117004 129.019836,139.024246 
	C129.219116,170.848450 129.122574,202.674515 129.122894,235.499985 
M273.903473,380.512421 
	C284.050690,383.705048 294.171021,386.988464 304.369141,390.009186 
	C306.273834,390.573364 308.656219,390.602448 310.537659,390.001038 
	C329.691833,383.878143 348.752106,377.459961 367.929565,371.412781 
	C371.893738,370.162781 373.008026,368.116302 373.000244,364.208954 
	C372.903534,315.553894 372.897888,266.898468 373.012115,218.243484 
	C373.021484,214.252670 371.717804,212.250336 367.880188,211.034012 
	C349.026001,205.058182 330.273132,198.761810 311.402985,192.838226 
	C308.920898,192.059082 305.797485,192.171570 303.268036,192.900909 
	C294.009003,195.570724 284.935425,198.886719 275.667725,201.522400 
	C271.446381,202.722916 270.277222,205.007828 270.344421,209.097061 
	C270.535980,220.757843 270.180145,232.430756 270.529175,244.084229 
	C270.662415,248.532562 269.044220,249.699875 264.980042,250.135239 
	C257.211060,250.967484 249.526627,252.568756 241.764618,253.494843 
	C237.450394,254.009567 235.879440,255.772842 235.900345,260.246735 
	C236.060730,294.571289 236.037552,328.897095 235.919037,363.221954 
	C235.905975,367.009827 237.138397,368.998199 240.801178,370.093414 
	C251.628326,373.330780 262.378632,376.825134 273.903473,380.512421 
z"/>
<path fill="#F6F9FD" opacity="1.000000" stroke="none" 
	d="
M129.122910,234.999969 
	C129.122574,202.674515 129.219116,170.848450 129.019836,139.024246 
	C128.989105,134.117004 130.299515,131.603699 135.237762,130.074463 
	C153.810806,124.322876 172.217270,118.034988 190.758301,112.176468 
	C193.082596,111.442055 196.030289,111.444260 198.362335,112.164009 
	C219.167206,118.585205 239.863007,125.360786 260.682831,131.731705 
	C264.671814,132.952347 265.812592,134.904663 265.799377,138.836548 
	C265.683990,173.160995 265.669098,207.486252 265.812622,241.810501 
	C265.830872,246.175461 264.441833,248.068344 260.037872,248.564331 
	C252.271225,249.439011 244.590347,251.114349 236.816803,251.873077 
	C232.477615,252.296600 231.389145,253.952972 231.493561,258.129272 
	C231.785004,269.785767 231.449966,281.457062 231.672363,293.116608 
	C231.753342,297.361969 230.158539,299.390076 226.124817,300.559937 
	C217.029297,303.197784 208.113312,306.462860 198.994110,309.006042 
	C196.155701,309.797607 192.670166,309.824646 189.871368,308.950897 
	C171.152527,303.107117 152.562546,296.851807 133.871857,290.915466 
	C130.186142,289.744812 129.022369,287.717346 129.057678,283.987305 
	C129.210678,267.826080 129.123032,251.662628 129.122910,234.999969 
M182.736664,122.147583 
	C167.172623,127.216240 151.608597,132.284882 136.209808,137.299713 
	C136.209808,186.500763 136.209808,235.100067 136.209808,284.000000 
	C154.355728,289.944061 172.462967,295.875458 190.827255,301.891083 
	C190.827255,241.013748 190.827255,180.610809 190.827255,119.727592 
	C188.209045,120.528687 185.863556,121.246330 182.736664,122.147583 
M241.515015,244.064072 
	C247.235336,243.210403 252.955673,242.356750 258.700775,241.499405 
	C258.835419,240.464386 258.991669,239.823013 258.991943,239.181564 
	C259.005737,206.855484 258.954742,174.529190 259.091309,142.203674 
	C259.104309,139.126266 257.755676,138.298706 255.266846,137.518402 
	C237.661560,131.998734 220.095520,126.354012 202.510803,120.768547 
	C201.166519,120.341560 199.774948,120.063454 198.255768,119.678207 
	C198.255768,180.631256 198.255768,241.046936 198.255768,301.866150 
	C205.840012,299.515198 213.067566,297.067719 220.421631,295.090729 
	C223.648300,294.223297 224.512955,292.685822 224.471619,289.517517 
	C224.308624,277.022461 224.480927,264.523315 224.364746,252.027222 
	C224.328476,248.125137 225.813156,246.209579 229.791489,245.866928 
	C233.429504,245.553589 237.025391,244.751205 241.515015,244.064072 
z"/>
<path fill="#F9FBFE" opacity="1.000000" stroke="none" 
	d="
M273.531250,380.365662 
	C262.378632,376.825134 251.628326,373.330780 240.801178,370.093414 
	C237.138397,368.998199 235.905975,367.009827 235.919037,363.221954 
	C236.037552,328.897095 236.060730,294.571289 235.900345,260.246735 
	C235.879440,255.772842 237.450394,254.009567 241.764618,253.494843 
	C249.526627,252.568756 257.211060,250.967484 264.980042,250.135239 
	C269.044220,249.699875 270.662415,248.532562 270.529175,244.084229 
	C270.180145,232.430756 270.535980,220.757843 270.344421,209.097061 
	C270.277222,205.007828 271.446381,202.722916 275.667725,201.522400 
	C284.935425,198.886719 294.009003,195.570724 303.268036,192.900909 
	C305.797485,192.171570 308.920898,192.059082 311.402985,192.838226 
	C330.273132,198.761810 349.026001,205.058182 367.880188,211.034012 
	C371.717804,212.250336 373.021484,214.252670 373.012115,218.243484 
	C372.897888,266.898468 372.903534,315.553894 373.000244,364.208954 
	C373.008026,368.116302 371.893738,370.162781 367.929565,371.412781 
	C348.752106,377.459961 329.691833,383.878143 310.537659,390.001038 
	C308.656219,390.602448 306.273834,390.573364 304.369141,390.009186 
	C294.171021,386.988464 284.050690,383.705048 273.531250,380.365662 
M311.010712,243.500000 
	C311.010712,289.608032 311.010712,335.716064 311.010712,382.208344 
	C313.089905,381.661072 314.692841,381.319977 316.243866,380.818359 
	C331.427032,375.908295 346.566132,370.857269 361.806458,366.132416 
	C365.114288,365.106903 366.029114,363.659576 366.019653,360.258698 
	C365.892029,314.268860 365.933990,268.278503 365.933990,222.288284 
	C365.933990,220.964828 365.933990,219.641388 365.933990,218.041733 
	C347.663605,212.056824 329.541260,206.120392 311.010712,200.050247 
	C311.010712,214.547012 311.010712,228.523499 311.010712,243.500000 
M277.599365,209.920120 
	C277.590515,223.074860 277.485870,236.230652 277.628754,249.383743 
	C277.674042,253.555374 276.593018,255.697144 271.927399,256.219055 
	C262.385223,257.286499 252.918915,259.032135 243.617371,260.468201 
	C243.332993,261.110962 243.090057,261.403961 243.089645,261.697266 
	C243.043045,294.665253 242.975220,327.633423 243.135544,360.600525 
	C243.141663,361.857300 245.138351,363.766937 246.583298,364.251343 
	C260.441040,368.897369 274.375061,373.316376 288.297668,377.767914 
	C293.323883,379.374939 298.378357,380.893677 303.709381,382.542206 
	C303.709381,321.480835 303.709381,260.989594 303.709381,199.707626 
	C294.739563,202.923340 286.233673,205.972748 277.599365,209.920120 
z"/>
<path fill="#0157D2" opacity="1.000000" stroke="none" 
	d="
M183.127365,122.055779 
	C185.863556,121.246330 188.209045,120.528687 190.827255,119.727592 
	C190.827255,180.610809 190.827255,241.013748 190.827255,301.891083 
	C172.462967,295.875458 154.355728,289.944061 136.209808,284.000000 
	C136.209808,235.100067 136.209808,186.500763 136.209808,137.299713 
	C151.608597,132.284882 167.172623,127.216240 183.127365,122.055779 
z"/>
<path fill="#0157D2" opacity="1.000000" stroke="none" 
	d="
M241.077438,244.114197 
	C237.025391,244.751205 233.429504,245.553589 229.791489,245.866928 
	C225.813156,246.209579 224.328476,248.125137 224.364746,252.027222 
	C224.480927,264.523315 224.308624,277.022461 224.471619,289.517517 
	C224.512955,292.685822 223.648300,294.223297 220.421631,295.090729 
	C213.067566,297.067719 205.840012,299.515198 198.255768,301.866150 
	C198.255768,241.046936 198.255768,180.631256 198.255768,119.678207 
	C199.774948,120.063454 201.166519,120.341560 202.510803,120.768547 
	C220.095520,126.354012 237.661560,131.998734 255.266846,137.518402 
	C257.755676,138.298706 259.104309,139.126266 259.091309,142.203674 
	C258.954742,174.529190 259.005737,206.855484 258.991943,239.181564 
	C258.991669,239.823013 258.835419,240.464386 258.700775,241.499405 
	C252.955673,242.356750 247.235336,243.210403 241.077438,244.114197 
M224.381424,197.499802 
	C224.380951,202.164307 224.380783,206.828812 224.379959,211.493317 
	C224.377991,222.395096 224.373810,222.226196 235.082642,221.968353 
	C239.554230,221.860703 241.212326,220.342056 241.154282,215.744400 
	C240.941910,198.921539 241.075073,182.094391 241.068558,165.268845 
	C241.064087,153.710999 242.002670,155.576355 231.272827,153.389175 
	C225.526382,152.217804 224.412338,153.106033 224.392197,159.017242 
	C224.349594,171.511307 224.380615,184.005615 224.381424,197.499802 
z"/>
<path fill="#0157D2" opacity="1.000000" stroke="none" 
	d="
M311.010712,243.000000 
	C311.010712,228.523499 311.010712,214.547012 311.010712,200.050247 
	C329.541260,206.120392 347.663605,212.056824 365.933990,218.041733 
	C365.933990,219.641388 365.933990,220.964828 365.933990,222.288284 
	C365.933990,268.278503 365.892029,314.268860 366.019653,360.258698 
	C366.029114,363.659576 365.114288,365.106903 361.806458,366.132416 
	C346.566132,370.857269 331.427032,375.908295 316.243866,380.818359 
	C314.692841,381.319977 313.089905,381.661072 311.010712,382.208344 
	C311.010712,335.716064 311.010712,289.608032 311.010712,243.000000 
z"/>
<path fill="#0157D2" opacity="1.000000" stroke="none" 
	d="
M277.663574,209.471130 
	C286.233673,205.972748 294.739563,202.923340 303.709381,199.707626 
	C303.709381,260.989594 303.709381,321.480835 303.709381,382.542206 
	C298.378357,380.893677 293.323883,379.374939 288.297668,377.767914 
	C274.375061,373.316376 260.441040,368.897369 246.583298,364.251343 
	C245.138351,363.766937 243.141663,361.857300 243.135544,360.600525 
	C242.975220,327.633423 243.043045,294.665253 243.089645,261.697266 
	C243.090057,261.403961 243.332993,261.110962 243.617371,260.468201 
	C252.918915,259.032135 262.385223,257.286499 271.927399,256.219055 
	C276.593018,255.697144 277.674042,253.555374 277.628754,249.383743 
	C277.485870,236.230652 277.590515,223.074860 277.663574,209.471130 
M260.879486,323.499939 
	C260.868805,327.820953 260.862549,332.141998 260.846680,336.462982 
	C260.800537,349.008545 260.254059,346.330353 270.807037,348.622589 
	C276.419098,349.841553 277.580780,348.825989 277.593903,342.895020 
	C277.632111,325.611053 277.610901,308.326965 277.610504,291.042908 
	C277.610229,279.726471 277.610718,279.871552 266.487396,280.053528 
	C262.102661,280.125275 260.783356,281.875031 260.852814,286.105042 
	C261.051910,298.233551 260.897308,310.367920 260.879486,323.499939 
z"/>
<path fill="#F0F5FC" opacity="1.000000" stroke="none" 
	d="
M224.381439,196.999817 
	C224.380615,184.005615 224.349594,171.511307 224.392197,159.017242 
	C224.412338,153.106033 225.526382,152.217804 231.272827,153.389175 
	C242.002670,155.576355 241.064087,153.710999 241.068558,165.268845 
	C241.075073,182.094391 240.941910,198.921539 241.154282,215.744400 
	C241.212326,220.342056 239.554230,221.860703 235.082642,221.968353 
	C224.373810,222.226196 224.377991,222.395096 224.379959,211.493317 
	C224.380783,206.828812 224.380951,202.164307 224.381439,196.999817 
M233.995743,186.500031 
	C233.995743,178.615494 233.995743,170.730972 233.995743,162.846436 
	C230.610214,167.328964 231.125565,212.008850 233.995743,214.769745 
	C233.995743,205.352341 233.995743,196.426178 233.995743,186.500031 
z"/>
<path fill="#F0F5FC" opacity="1.000000" stroke="none" 
	d="
M260.880646,322.999939 
	C260.897308,310.367920 261.051910,298.233551 260.852814,286.105042 
	C260.783356,281.875031 262.102661,280.125275 266.487396,280.053528 
	C277.610718,279.871552 277.610229,279.726471 277.610504,291.042908 
	C277.610901,308.326965 277.632111,325.611053 277.593903,342.895020 
	C277.580780,348.825989 276.419098,349.841553 270.807037,348.622589 
	C260.254059,346.330353 260.800537,349.008545 260.846680,336.462982 
	C260.862549,332.141998 260.868805,327.820953 260.880646,322.999939 
M270.382416,293.552490 
	C270.160461,291.550781 269.938538,289.549042 269.716583,287.547333 
	C269.319977,287.608643 268.923401,287.669983 268.526794,287.731323 
	C268.526794,304.867035 268.526794,322.002747 268.526794,339.138489 
	C269.145416,339.148499 269.764038,339.158508 270.382660,339.168518 
	C270.382660,324.291870 270.382660,309.415253 270.382416,293.552490 
z"/>
<path fill="#0358D2" opacity="1.000000" stroke="none" 
	d="
M233.995743,187.000015 
	C233.995743,196.426178 233.995743,205.352341 233.995743,214.769745 
	C231.125565,212.008850 230.610214,167.328964 233.995743,162.846436 
	C233.995743,170.730972 233.995743,178.615494 233.995743,187.000015 
z"/>
<path fill="#0358D2" opacity="1.000000" stroke="none" 
	d="
M270.382538,294.045563 
	C270.382660,309.415253 270.382660,324.291870 270.382660,339.168518 
	C269.764038,339.158508 269.145416,339.148499 268.526794,339.138489 
	C268.526794,322.002747 268.526794,304.867035 268.526794,287.731323 
	C268.923401,287.669983 269.319977,287.608643 269.716583,287.547333 
	C269.938538,289.549042 270.160461,291.550781 270.382538,294.045563 
z"/>
</svg>